<svg xmlns="http://www.w3.org/2000/svg" version="1.1" xmlns:xlink="http://www.w3.org/1999/xlink" width="1000" height="1000"><metadata><rdf:RDF xmlns:rdf="http://www.w3.org/1999/02/22-rdf-syntax-ns#" xmlns:dc="http://purl.org/dc/elements/1.1/"><rdf:Description><dc:creator>RealFaviconGenerator</dc:creator><dc:source>https://realfavicongenerator.net</dc:source></rdf:Description></rdf:RDF></metadata><g clip-path="url(#SvgjsClipPath1205)"><rect width="1000" height="1000" fill="#000000"></rect><g transform="matrix(3,0,0,3,50,50)"><svg xmlns="http://www.w3.org/2000/svg" version="1.1" id="svg1" width="300" height="300" viewBox="0 0 300 300" xmlns:svg="http://www.w3.org/2000/svg"><defs id="defs1">
    <clipPath clipPathUnits="userSpaceOnUse" id="clipPath16">
      <path d="M 0,-4.0000001e-4 H 340.15701 V -85.039402 H 0 Z" id="path16"></path>
    </clipPath>
    <clipPath clipPathUnits="userSpaceOnUse" id="clipPath22">
      <path d="M 0,85.039005 H 340.15701 V 2.5000001e-6 H 0 Z" id="path22"></path>
    </clipPath>
  <clipPath id="SvgjsClipPath1205"><rect width="1000" height="1000" x="0" y="0" rx="250" ry="250"></rect></clipPath></defs><g id="layer-MC0">
    <path id="path15" d="M 0,0 V -14.173" style="fill:none;stroke:#808080;stroke-width:0.283;stroke-linecap:butt;stroke-linejoin:miter;stroke-miterlimit:10;stroke-dasharray:none;stroke-opacity:1" transform="scale(1.3333333,-1.3333333)" clip-path="url(#clipPath16)"></path>
    <path id="path17" d="M 0,0 H 14.173" style="fill:none;stroke:#808080;stroke-width:0.283;stroke-linecap:butt;stroke-linejoin:miter;stroke-miterlimit:10;stroke-dasharray:none;stroke-opacity:1" transform="scale(1.3333333,-1.3333333)" clip-path="url(#clipPath16)"></path>
    <path id="path21" d="M 0,0 V 14.173" style="fill:none;stroke:#808080;stroke-width:0.283;stroke-linecap:butt;stroke-linejoin:miter;stroke-miterlimit:10;stroke-dasharray:none;stroke-opacity:1" transform="matrix(1.3333333,0,0,-1.3333333,0,113.38587)" clip-path="url(#clipPath22)"></path>
    <path id="path23" d="M 0,0 H 14.173" style="fill:none;stroke:#808080;stroke-width:0.283;stroke-linecap:butt;stroke-linejoin:miter;stroke-miterlimit:10;stroke-dasharray:none;stroke-opacity:1" transform="matrix(1.3333333,0,0,-1.3333333,0,113.38587)" clip-path="url(#clipPath22)"></path>
    <path id="path2" d="m 138.99315,220.24886 c -2.73946,0 -4.30534,-1.36973 -4.30534,-4.30536 V 102.94837 H 122.07576 V 82.676927 c 0,-1.526661 1.23244,-2.762372 2.7591,-2.765631 h 0.0326 l 33.97536,0.254993 V 194.82863 l 25.11946,0.0522 v 25.36791 z m -55.874799,-4.45573 0.01275,-112.85456 H 48.136129 V 84.056474 c 0,-2.935632 1.565874,-4.30535 4.305346,-4.30535 h 54.867945 l 0.24517,140.347356 H 87.426958 c -2.742708,0 -4.308607,-1.36974 -4.308607,-4.30535 m 168.745729,-9.04548 v 9.19585 c 0,2.93563 -1.56587,4.30534 -4.30536,4.30534 h -45.5936 c -2.73948,0 -4.30537,-1.36971 -4.30537,-4.30534 V 102.94836 H 184.62274 V 83.615135 c 0.19614,-2.680654 1.72932,-3.703861 4.28248,-3.703861 h 34.05054 V 195.97278 h 13.69737 v -82.79553 h -0.14392 V 67.779785 L 48.587159,67.619678 c -7.381547,0 -13.367199,5.982396 -13.367199,13.363915 v 21.448307 14.8873 h 34.98552 v 114.91082 h 50.78487 v 0.1503 h 62.97195 17.98965 49.30072 c 7.46981,0 13.52737,-6.05429 13.52737,-13.52411 v -12.1086 z" style="fill:#ffc400;fill-opacity:1;fill-rule:nonzero;stroke:none;stroke-width:3.26905"></path>
  </g></svg></g></g></svg>